ffmpeg started on 2016-12-06 at 06:56:16
Report written to "Output/x264/results/ffmpeg/sintelfast6000k.log"
Command line:
Tools/ffmpeg/ffmpeg -benchmark -y -i Input/y4m/sintel.y4m -c:v libx264 -preset fast -b:v 6000k -an Output/x264/encoded/sintelfast6000k.mkv
ffmpeg version N-82227-gdb23fde Copyright (c) 2000-2016 the FFmpeg developers
  built with gcc 5.4.0 (Ubuntu 5.4.0-6ubuntu1~16.04.2) 20160609
  configuration: --prefix=/home/jaroslav/ffmpeg_build --pkg-config-flags=--static --extra-cflags=-I/home/jaroslav/ffmpeg_build/include --extra-ldflags=-L/home/jaroslav/ffmpeg_build/lib --bindir=/home/jaroslav/bin --enable-gpl --enable-libass --enable-libfdk-aac --enable-libfreetype --enable-libmp3lame --enable-libopus --enable-libtheora --enable-libvorbis --enable-libvpx --enable-libx264 --enable-libx265 --enable-nvenc --enable-libmfx --enable-libxvid --enable-libgsm --enable-libopencore-amrnb --enable-version3 --enable-nonfree
  libavutil      55. 35.100 / 55. 35.100
  libavcodec     57. 66.101 / 57. 66.101
  libavformat    57. 57.100 / 57. 57.100
  libavdevice    57.  2.100 / 57.  2.100
  libavfilter     6. 66.100 /  6. 66.100
  libswscale      4.  3.100 /  4.  3.100
  libswresample   2.  4.100 /  2.  4.100
  libpostproc    54.  2.100 / 54.  2.100
Input #0, yuv4mpegpipe, from 'Input/y4m/sintel.y4m':
  Duration: 00:00:20.83, start: 0.000000, bitrate: 2057307 kb/s
    Stream #0:0: Video: rawvideo (I420 / 0x30323449), yuv420p(progressive), 4096x1744, SAR 1:1 DAR 256:109, 24 fps, 24 tbr, 24 tbn, 24 tbc
[libx264 @ 0x2963120] using SAR=1/1
[libx264 @ 0x2963120] using cpu capabilities: MMX2 SSE2Fast SSSE3 SSE4.2 AVX FMA3 AVX2 LZCNT BMI2
[libx264 @ 0x2963120] profile High, level 5.1
[libx264 @ 0x2963120] 264 - core 148 - H.264/MPEG-4 AVC codec - Copyleft 2003-2016 - http://www.videolan.org/x264.html - options: cabac=1 ref=2 deblock=1:0:0 analyse=0x3:0x113 me=hex subme=6 psy=1 psy_rd=1.00:0.00 mixed_ref=1 me_range=16 chroma_me=1 trellis=1 8x8dct=1 cqm=0 deadzone=21,11 fast_pskip=1 chroma_qp_offset=-2 threads=6 lookahead_threads=1 sliced_threads=0 nr=0 decimate=1 interlaced=0 bluray_compat=0 constrained_intra=0 bframes=3 b_pyramid=2 b_adapt=1 b_bias=0 direct=1 weightb=1 open_gop=0 weightp=1 keyint=250 keyint_min=24 scenecut=40 intra_refresh=0 rc_lookahead=30 rc=abr mbtree=1 bitrate=6000 ratetol=1.0 qcomp=0.60 qpmin=0 qpmax=69 qpstep=4 ip_ratio=1.40 aq=1:1.00
Output #0, matroska, to 'Output/x264/encoded/sintelfast6000k.mkv':
  Metadata:
    encoder         : Lavf57.57.100
    Stream #0:0: Video: h264 (libx264) (H264 / 0x34363248), yuv420p, 4096x1744 [SAR 1:1 DAR 256:109], q=-1--1, 6000 kb/s, 24 fps, 1k tbn, 24 tbc
    Metadata:
      encoder         : Lavc57.66.101 libx264
    Side data:
      cpb: bitrate max/min/avg: 0/0/6000000 buffer size: 0 vbv_delay: -1
Stream mapping:
  Stream #0:0 -> #0:0 (rawvideo (native) -> h264 (libx264))
Press [q] to stop, [?] for help
frame=   10 fps=0.0 q=0.0 size=       0kB time=00:00:00.00 bitrate=N/A speed=   0x    frame=   19 fps= 19 q=0.0 size=       0kB time=00:00:00.00 bitrate=N/A speed=   0x    frame=   28 fps= 18 q=0.0 size=       0kB time=00:00:00.00 bitrate=N/A speed=   0x    frame=   37 fps= 10 q=0.0 size=       0kB time=00:00:00.00 bitrate=N/A speed=   0x    frame=   43 fps=9.4 q=30.0 size=       1kB time=00:00:00.00 bitrate=5872.0kbits/s speed=0.000219x    frame=   45 fps=7.5 q=33.0 size=       1kB time=00:00:00.08 bitrate=  69.9kbits/s speed=0.014x    frame=   46 fps=5.0 q=36.0 size=       1kB time=00:00:00.12 bitrate=  46.6kbits/s speed=0.0138x    frame=   47 fps=4.4 q=46.0 size=       1kB time=00:00:00.16 bitrate=  35.0kbits/s speed=0.0156x    frame=   52 fps=4.6 q=47.0 size=       1kB time=00:00:00.37 bitrate=  15.6kbits/s speed=0.0332x    frame=   59 fps=5.0 q=48.0 size=       1kB time=00:00:00.66 bitrate=   8.8kbits/s speed=0.0565x    frame=   65 fps=5.2 q=47.0 size=       1kB time=00:00:00.91 bitrate=   6.4kbits/s speed=0.074x    frame=   73 fps=5.6 q=46.0 size=       1kB time=00:00:01.25 bitrate=   4.7kbits/s speed=0.0968x    frame=   79 fps=5.9 q=46.0 size=       1kB time=00:00:01.50 bitrate=   3.9kbits/s speed=0.111x    frame=   88 fps=6.3 q=45.0 size=       1kB time=00:00:01.87 bitrate=   3.1kbits/s speed=0.134x    frame=   94 fps=6.5 q=44.0 size=       1kB time=00:00:02.12 bitrate=   2.8kbits/s speed=0.146x    frame=  100 fps=6.6 q=44.0 size=       1kB time=00:00:02.37 bitrate=   2.5kbits/s speed=0.157x    frame=  107 fps=6.8 q=44.0 size=       1kB time=00:00:02.66 bitrate=   2.2kbits/s speed=0.17x    frame=  112 fps=6.9 q=44.0 size=       1kB time=00:00:02.87 bitrate=   2.0kbits/s speed=0.176x    frame=  118 fps=7.0 q=43.0 size=       1kB time=00:00:03.12 bitrate=   1.9kbits/s speed=0.186x    frame=  124 fps=7.1 q=43.0 size=       1kB time=00:00:03.37 bitrate=   1.7kbits/s speed=0.194x    frame=  129 fps=7.2 q=43.0 size=       1kB time=00:00:03.58 bitrate=   1.6kbits/s speed= 0.2x    frame=  136 fps=7.4 q=43.0 size=       1kB time=00:00:03.87 bitrate=   1.5kbits/s speed=0.21x    frame=  142 fps=7.5 q=43.0 size=    3310kB time=00:00:04.12 bitrate=6572.5kbits/s speed=0.217x    frame=  149 fps=7.6 q=43.0 size=    3310kB time=00:00:04.41 bitrate=6138.1kbits/s speed=0.224x    frame=  157 fps=7.8 q=42.0 size=    3310kB time=00:00:04.75 bitrate=5707.9kbits/s speed=0.235x    frame=  162 fps=7.8 q=42.0 size=    3310kB time=00:00:04.95 bitrate=5468.5kbits/s speed=0.239x    frame=  168 fps=7.9 q=42.0 size=    3310kB time=00:00:05.20 bitrate=5206.0kbits/s speed=0.244x    frame=  175 fps=8.0 q=42.0 size=    3310kB time=00:00:05.50 bitrate=4929.7kbits/s speed=0.252x    frame=  183 fps=8.2 q=42.0 size=    3310kB time=00:00:05.83 bitrate=4648.3kbits/s speed=0.26x    frame=  190 fps=8.3 q=42.0 size=    3310kB time=00:00:06.12 bitrate=4426.7kbits/s speed=0.267x    frame=  199 fps=8.5 q=42.0 size=    4947kB time=00:00:06.50 bitrate=6233.2kbits/s speed=0.277x    frame=  204 fps=8.5 q=42.0 size=    4947kB time=00:00:06.70 bitrate=6040.0kbits/s speed=0.279x    frame=  211 fps=8.6 q=42.0 size=    4947kB time=00:00:07.00 bitrate=5788.1kbits/s speed=0.285x    frame=  217 fps=8.6 q=41.0 size=    4947kB time=00:00:07.25 bitrate=5588.5kbits/s speed=0.287x    frame=  226 fps=8.8 q=42.0 size=    5585kB time=00:00:07.62 bitrate=5999.6kbits/s speed=0.296x    frame=  233 fps=8.8 q=41.0 size=    5585kB time=00:00:07.91 bitrate=5778.4kbits/s speed= 0.3x    frame=  240 fps=8.9 q=41.0 size=    5585kB time=00:00:08.20 bitrate=5573.5kbits/s speed=0.304x    frame=  247 fps=9.0 q=41.0 size=    5585kB time=00:00:08.50 bitrate=5382.1kbits/s speed=0.309x    frame=  255 fps=9.1 q=41.0 size=    5585kB time=00:00:08.83 bitrate=5179.2kbits/s speed=0.314x    frame=  262 fps=9.1 q=41.0 size=    5585kB time=00:00:09.12 bitrate=5013.5kbits/s speed=0.317x    frame=  271 fps=9.2 q=41.0 size=    5585kB time=00:00:09.50 bitrate=4815.6kbits/s speed=0.323x    frame=  277 fps=9.3 q=40.0 size=    5585kB time=00:00:09.75 bitrate=4692.2kbits/s speed=0.326x    frame=  283 fps=9.3 q=40.0 size=    5585kB time=00:00:10.00 bitrate=4574.9kbits/s speed=0.329x    frame=  293 fps=9.4 q=40.0 size=    5585kB time=00:00:10.41 bitrate=4391.7kbits/s speed=0.336x    frame=  300 fps=9.5 q=40.0 size=    5585kB time=00:00:10.70 bitrate=4272.4kbits/s speed=0.339x    frame=  303 fps=9.4 q=40.0 size=    5585kB time=00:00:10.83 bitrate=4223.1kbits/s speed=0.337x    frame=  312 fps=9.5 q=40.0 size=    7518kB time=00:00:11.20 bitrate=5494.8kbits/s speed=0.343x    frame=  321 fps=9.6 q=39.0 size=    7518kB time=00:00:11.58 bitrate=5316.9kbits/s speed=0.347x    frame=  328 fps=9.7 q=39.0 size=    7518kB time=00:00:11.87 bitrate=5186.1kbits/s speed=0.35x    frame=  337 fps=9.8 q=39.0 size=    7518kB time=00:00:12.25 bitrate=5027.4kbits/s speed=0.355x    frame=  348 fps=9.9 q=38.0 size=    7518kB time=00:00:12.70 bitrate=4846.2kbits/s speed=0.363x    frame=  356 fps= 10 q=38.0 size=    7518kB time=00:00:13.04 bitrate=4722.1kbits/s speed=0.366x    frame=  365 fps= 10 q=38.0 size=    7518kB time=00:00:13.41 bitrate=4590.2kbits/s speed=0.371x    frame=  375 fps= 10 q=37.0 size=    7518kB time=00:00:13.83 bitrate=4452.1kbits/s speed=0.377x    frame=  384 fps= 10 q=37.0 size=    7518kB time=00:00:14.20 bitrate=4334.6kbits/s speed=0.382x    frame=  393 fps= 10 q=36.0 size=    7518kB time=00:00:14.58 bitrate=4223.2kbits/s speed=0.387x    frame=  402 fps= 11 q=36.0 size=    7518kB time=00:00:14.95 bitrate=4117.3kbits/s speed=0.391x    frame=  408 fps= 10 q=36.0 size=    9228kB time=00:00:15.20 bitrate=4970.3kbits/s speed=0.391x    frame=  416 fps= 11 q=36.0 size=    9228kB time=00:00:15.54 bitrate=4863.5kbits/s speed=0.392x    frame=  424 fps= 11 q=36.0 size=    9228kB time=00:00:15.87 bitrate=4761.5kbits/s speed=0.396x    frame=  431 fps= 11 q=36.0 size=    9228kB time=00:00:16.16 bitrate=4675.5kbits/s speed=0.397x    frame=  436 fps= 11 q=36.0 size=    9228kB time=00:00:16.37 bitrate=4616.1kbits/s speed=0.397x    frame=  442 fps= 11 q=36.0 size=    9228kB time=00:00:16.62 bitrate=4546.7kbits/s speed=0.398x    frame=  448 fps= 11 q=36.0 size=    9228kB time=00:00:16.87 bitrate=4479.3kbits/s speed=0.399x    frame=  457 fps= 11 q=36.0 size=    9228kB time=00:00:17.25 bitrate=4381.9kbits/s speed=0.403x    frame=  464 fps= 11 q=36.0 size=   10938kB time=00:00:17.54 bitrate=5107.8kbits/s speed=0.404x    frame=  472 fps= 11 q=36.0 size=   10938kB time=00:00:17.87 bitrate=5012.6kbits/s speed=0.406x    frame=  481 fps= 11 q=36.0 size=   10938kB time=00:00:18.25 bitrate=4909.6kbits/s speed=0.409x    frame=  489 fps= 11 q=36.0 size=   10938kB time=00:00:18.58 bitrate=4821.7kbits/s speed=0.411x    frame=  496 fps= 11 q=36.0 size=   10938kB time=00:00:18.87 bitrate=4747.1kbits/s speed=0.413x    frame=  500 fps= 11 q=35.0 size=   10938kB time=00:00:19.04 bitrate=4705.4kbits/s speed=0.411x    frame=  500 fps= 10 q=-1.0 Lsize=   13130kB time=00:00:20.70 bitrate=5194.0kbits/s speed=0.429x    
video:13125kB audio:0kB subtitle:0kB other streams:0kB global headers:0kB muxing overhead: 0.036472%
bench: utime=149.280s
bench: maxrss=1326364kB
[libx264 @ 0x2963120] frame I:8     Avg QP:30.87  size: 88546
[libx264 @ 0x2963120] frame P:269   Avg QP:36.22  size: 30390
[libx264 @ 0x2963120] frame B:223   Avg QP:33.79  size: 20433
[libx264 @ 0x2963120] consecutive B-frames: 37.0%  8.4%  6.6% 48.0%
[libx264 @ 0x2963120] mb I  I16..4: 28.0% 69.6%  2.4%
[libx264 @ 0x2963120] mb P  I16..4: 17.2% 23.7%  0.2%  P16..4: 15.9%  1.2%  0.4%  0.0%  0.0%    skip:41.3%
[libx264 @ 0x2963120] mb B  I16..4:  6.6%  5.5%  0.1%  B16..8: 14.0%  1.1%  0.0%  direct: 5.6%  skip:67.0%  L0:42.7% L1:54.2% BI: 3.1%
[libx264 @ 0x2963120] final ratefactor: 32.94
[libx264 @ 0x2963120] 8x8 transform intra:56.0% inter:92.4%
[libx264 @ 0x2963120] coded y,uvDC,uvAC intra: 10.3% 18.6% 0.7% inter: 3.3% 3.0% 0.0%
[libx264 @ 0x2963120] i16 v,h,dc,p: 37% 32%  9% 22%
[libx264 @ 0x2963120] i8 v,h,dc,ddl,ddr,vr,hd,vl,hu: 20% 13% 56%  2%  2%  2%  2%  1%  2%
[libx264 @ 0x2963120] i4 v,h,dc,ddl,ddr,vr,hd,vl,hu: 19% 25% 11%  6% 10%  7% 11%  4%  6%
[libx264 @ 0x2963120] i8c dc,h,v,p: 85%  7%  7%  1%
[libx264 @ 0x2963120] Weighted P-Frames: Y:0.7% UV:0.0%
[libx264 @ 0x2963120] ref P L0: 79.8% 20.2%
[libx264 @ 0x2963120] ref B L0: 86.2% 13.8%
[libx264 @ 0x2963120] ref B L1: 97.1%  2.9%
[libx264 @ 0x2963120] kb/s:5160.83
